<?xml version="1.0" encoding="UTF-8"?>
<svg version="1.1" xmlns="http://www.w3.org/2000/svg" width="526" height="534">
<path d="M0 0 C1.30511536 0.00223572 1.30511536 0.00223572 2.63659668 0.0045166 C16.73732608 0.04775652 30.46926343 0.83725776 44.375 3.3125 C45.66277344 3.5293042 45.66277344 3.5293042 46.9765625 3.75048828 C94.83295407 11.91029221 139.71643649 34.51656468 175.26171875 67.41015625 C177.43088479 69.41334141 177.43088479 69.41334141 180.14453125 71.43359375 C180.88058594 72.05363281 181.61664063 72.67367187 182.375 73.3125 C182.375 73.9725 182.375 74.6325 182.375 75.3125 C183.365 75.6425 184.355 75.9725 185.375 76.3125 C185.375 76.9725 185.375 77.6325 185.375 78.3125 C186.035 78.3125 186.695 78.3125 187.375 78.3125 C188.890625 79.81640625 188.890625 79.81640625 190.625 81.875 C191.23988281 82.60074219 191.85476563 83.32648438 192.48828125 84.07421875 C193.42220703 85.18216797 193.42220703 85.18216797 194.375 86.3125 C194.96667969 86.97894531 195.55835938 87.64539063 196.16796875 88.33203125 C196.71066406 88.94433594 197.25335938 89.55664062 197.8125 90.1875 C198.30621094 90.74179688 198.79992187 91.29609375 199.30859375 91.8671875 C200.375 93.3125 200.375 93.3125 200.375 95.3125 C201.365 95.6425 202.355 95.9725 203.375 96.3125 C204.76171875 97.87109375 204.76171875 97.87109375 206.0625 99.75 C206.49949219 100.36746094 206.93648438 100.98492187 207.38671875 101.62109375 C208.375 103.3125 208.375 103.3125 208.375 105.3125 C209.035 105.3125 209.695 105.3125 210.375 105.3125 C211.8203125 107.296875 211.8203125 107.296875 213.5 110.0625 C216.04931592 114.20182585 218.68143172 118.24550156 221.4375 122.25 C224.63587728 127.03221861 227.3254593 131.8750062 229.8125 137.05859375 C230.9492189 139.42581086 232.11029679 141.76427843 233.3125 144.09765625 C240.08709645 157.27353528 245.28429583 170.5652504 249.5625 184.75 C249.89572266 185.84481689 250.22894531 186.93963379 250.57226562 188.06762695 C255.20861291 203.84590037 256.83490216 218.39769461 256.7734375 234.74609375 C256.77546575 236.67790333 256.77838337 238.60971216 256.78213501 240.54151917 C256.78652416 244.56461979 256.78023921 248.58751878 256.76611328 252.6105957 C256.74903522 257.7181555 256.75887593 262.82524164 256.77683067 267.93278408 C256.78777144 271.91469262 256.7841753 275.89649245 256.7764473 279.87840462 C256.77447298 281.75950237 256.77680481 283.64061063 256.78388596 285.52169609 C256.82945662 301.02412687 255.26203918 315.60374795 250.5 330.4375 C250.24025391 331.27095947 249.98050781 332.10441895 249.71289062 332.96313477 C248.94395507 335.41634939 248.15991486 337.86436178 247.375 340.3125 C246.94477179 341.69384212 246.51505017 343.07534218 246.0859375 344.45703125 C243.44184276 352.73901831 240.21018572 360.51579304 236.375 368.3125 C236.07190918 368.93769531 235.76881836 369.56289063 235.45654297 370.20703125 C230.80194137 379.8049286 225.80370737 389.12903357 220.375 398.3125 C219.86582031 399.18648438 219.35664063 400.06046875 218.83203125 400.9609375 C217.74175694 402.78339017 216.56916854 404.55636979 215.375 406.3125 C214.715 406.3125 214.055 406.3125 213.375 406.3125 C213.15714844 406.99183594 212.93929688 407.67117188 212.71484375 408.37109375 C210.9764348 412.18748423 208.57185899 415.13614664 205.9375 418.375 C204.95933643 419.59481239 203.98146391 420.81485823 203.00390625 422.03515625 C202.54516113 422.60121582 202.08641602 423.16727539 201.61376953 423.75048828 C200.58365163 425.0494032 199.61016286 426.39298422 198.65234375 427.74609375 C198.02005859 428.52146484 198.02005859 428.52146484 197.375 429.3125 C196.715 429.3125 196.055 429.3125 195.375 429.3125 C195.11589844 429.9003125 194.85679687 430.488125 194.58984375 431.09375 C193.29040207 433.46700683 191.89661971 434.9587093 189.9375 436.8125 C187.93577596 438.74362381 186.22748362 440.5108841 184.5625 442.75 C184.170625 443.265625 183.77875 443.78125 183.375 444.3125 C182.715 444.3125 182.055 444.3125 181.375 444.3125 C181.375 444.9725 181.375 445.6325 181.375 446.3125 C179.73046875 448.00390625 179.73046875 448.00390625 177.5625 449.875 C176.85480469 450.49503906 176.14710938 451.11507813 175.41796875 451.75390625 C173.375 453.3125 173.375 453.3125 170.375 454.3125 C170.375 454.9725 170.375 455.6325 170.375 456.3125 C168.30785965 458.10502754 166.23495942 459.78093321 164.0625 461.4375 C163.4223999 461.9310498 162.7822998 462.42459961 162.12280273 462.93310547 C160.21242698 464.40035405 158.29451318 465.8572364 156.375 467.3125 C155.43398438 468.034375 154.49296875 468.75625 153.5234375 469.5 C146.71862826 474.59846735 139.56034694 478.96097592 132.21875 483.22753906 C130.53678861 484.21729494 128.87643514 485.24353906 127.21875 486.2734375 C109.44112426 497.0544234 87.90028476 506.41977358 67.375 510.3125 C64.2036036 511.1149015 61.03532596 511.92612968 57.87304688 512.76367188 C46.00046917 515.81000157 34.43996185 516.64857659 22.23828125 516.68359375 C20.58896318 516.69259648 18.93964577 516.70171873 17.29032898 516.71095276 C13.84188885 516.7273529 10.39354464 516.73512481 6.94506836 516.73803711 C3.46298413 516.74231823 -0.01835095 516.76299985 -3.50024414 516.79956055 C-23.79412147 517.00880303 -42.89259169 516.68749778 -62.625 511.3125 C-63.56092987 511.05919418 -64.49685974 510.80588837 -65.46115112 510.54490662 C-81.40616234 506.16719128 -96.73812387 500.52872689 -111.625 493.3125 C-112.73230469 492.79042969 -113.83960938 492.26835937 -114.98046875 491.73046875 C-124.30160472 487.2331523 -132.9482105 481.93093159 -141.625 476.3125 C-142.85151327 475.52987076 -144.07807391 474.74731575 -145.3046875 473.96484375 C-151.5459622 469.91902921 -151.5459622 469.91902921 -153.625 468.3125 C-153.625 467.6525 -153.625 466.9925 -153.625 466.3125 C-154.69814453 465.94125 -154.69814453 465.94125 -155.79296875 465.5625 C-158.93909706 464.17386405 -161.26310963 462.46786054 -163.9375 460.3125 C-164.82050781 459.61125 -165.70351562 458.91 -166.61328125 458.1875 C-167.27714844 457.56875 -167.94101563 456.95 -168.625 456.3125 C-168.625 455.6525 -168.625 454.9925 -168.625 454.3125 C-169.21410156 454.05082031 -169.80320312 453.78914063 -170.41015625 453.51953125 C-172.74285434 452.2482725 -174.22854368 450.91019469 -176.0625 449 C-176.67222656 448.37222656 -177.28195313 447.74445313 -177.91015625 447.09765625 C-178.75900391 446.21400391 -178.75900391 446.21400391 -179.625 445.3125 C-180.40875 444.52875 -181.1925 443.745 -182 442.9375 C-182.86625 442.07125 -183.7325 441.205 -184.625 440.3125 C-185.76775391 439.20455078 -185.76775391 439.20455078 -186.93359375 438.07421875 C-187.75988281 437.26597656 -188.58617187 436.45773437 -189.4375 435.625 C-190.22769531 434.85800781 -191.01789063 434.09101563 -191.83203125 433.30078125 C-193.625 431.3125 -193.625 431.3125 -193.625 429.3125 C-194.615 428.9825 -195.605 428.6525 -196.625 428.3125 C-198.34276031 426.30359387 -199.93216431 424.30750179 -201.5 422.1875 C-201.94327637 421.59799561 -202.38655273 421.00849121 -202.84326172 420.40112305 C-204.11099897 418.71010785 -205.36862435 417.01196306 -206.625 415.3125 C-207.49898437 414.15041016 -207.49898437 414.15041016 -208.390625 412.96484375 C-211.625 408.58728448 -211.625 408.58728448 -211.625 406.3125 C-212.285 406.3125 -212.945 406.3125 -213.625 406.3125 C-214.429375 404.8584375 -214.429375 404.8584375 -215.25 403.375 C-216.84919267 400.55817642 -218.58322278 397.90464889 -220.4375 395.25 C-223.74395073 390.35278834 -226.32914818 385.14967298 -228.90625 379.84375 C-230.43469887 376.70348232 -232.02246884 373.6027731 -233.625 370.5 C-244.5432259 348.43247464 -251.50110314 324.89296879 -255.27124023 300.5847168 C-255.53223919 298.90830733 -255.82536538 297.23682531 -256.13604736 295.56890869 C-256.62524705 292.31085463 -256.77225776 289.23052535 -256.80200195 285.93774414 C-256.81483719 284.69106461 -256.82767242 283.44438507 -256.84089661 282.15992737 C-256.84907799 280.80584115 -256.85651901 279.4517503 -256.86328125 278.09765625 C-256.86735678 277.40371702 -256.8714323 276.70977779 -256.87563133 275.9948101 C-256.89645975 272.3048928 -256.91076221 268.61501207 -256.92016602 264.92504883 C-256.92893279 261.92190676 -256.94958568 258.91924157 -256.98168945 255.91625977 C-257.1690169 237.99374217 -256.65797814 220.88446883 -252.625 203.3125 C-252.36275635 202.10891846 -252.1005127 200.90533691 -251.83032227 199.6652832 C-251.19483427 196.90245633 -250.49894094 194.17143676 -249.75 191.4375 C-249.49661865 190.49390625 -249.2432373 189.5503125 -248.98217773 188.578125 C-245.1309583 174.53823643 -240.07014014 161.35228096 -233.625 148.3125 C-233.29177734 147.6323584 -232.95855469 146.9522168 -232.61523438 146.25146484 C-228.81230209 138.49699228 -224.94761834 130.79395481 -220.625 123.3125 C-219.965 123.3125 -219.305 123.3125 -218.625 123.3125 C-218.50116943 122.7237207 -218.37733887 122.13494141 -218.24975586 121.52832031 C-217.25522669 118.00102578 -215.16536785 115.10823077 -213.1875 112.0625 C-212.77951172 111.4128125 -212.37152344 110.763125 -211.95117188 110.09375 C-210.90009398 108.46140716 -209.76828965 106.88163882 -208.625 105.3125 C-207.965 105.3125 -207.305 105.3125 -206.625 105.3125 C-206.3775 104.77625 -206.13 104.24 -205.875 103.6875 C-204.31847463 100.7301018 -202.59064327 98.01525949 -200.625 95.3125 C-199.965 95.3125 -199.305 95.3125 -198.625 95.3125 C-198.398125 94.590625 -198.17125 93.86875 -197.9375 93.125 C-196.35014618 89.72352753 -194.3380647 87.90224357 -191.625 85.3125 C-190.04309752 83.45075237 -188.49254228 81.56811301 -186.95703125 79.66796875 C-186.29767578 78.99701172 -186.29767578 78.99701172 -185.625 78.3125 C-184.965 78.3125 -184.305 78.3125 -183.625 78.3125 C-183.13 76.8275 -183.13 76.8275 -182.625 75.3125 C-181.965 75.3125 -181.305 75.3125 -180.625 75.3125 C-180.625 74.6525 -180.625 73.9925 -180.625 73.3125 C-179.015625 71.65625 -179.015625 71.65625 -176.875 69.8125 C-176.17890625 69.2040625 -175.4828125 68.595625 -174.765625 67.96875 C-172.78039208 66.43273037 -170.90627955 65.3401034 -168.625 64.3125 C-168.625 63.6525 -168.625 62.9925 -168.625 62.3125 C-166.6005395 60.5369237 -164.57207287 58.88446499 -162.4375 57.25 C-161.79893066 56.75685303 -161.16036133 56.26370605 -160.50244141 55.75561523 C-132.92099094 34.62120097 -102.88896376 19.22254925 -69.625 9.3125 C-68.74070313 8.99023438 -67.85640625 8.66796875 -66.9453125 8.3359375 C-61.83633893 6.76117153 -56.62132709 5.81906276 -51.375 4.8125 C-50.3128125 4.59980469 -49.250625 4.38710937 -48.15625 4.16796875 C-32.12504754 1.07189529 -16.30447315 -0.06966051 0 0 Z " fill="#27A3DB" transform="translate(261.625,5.6875)"/>
<path d="M0 0 C3.03973615 2.12110621 3.87842607 3.35356207 4.56640625 7.01171875 C4.55746317 15.42715984 3.52629935 23.28742924 1.8046875 31.5234375 C1.58235947 32.60955826 1.36003143 33.69567902 1.13096619 34.81471252 C-1.28601335 46.54523329 -3.84598613 58.24451273 -6.4375 69.9375 C-6.92393745 72.1390726 -7.41034669 74.34065144 -7.89672852 76.54223633 C-16.86110029 117.06543678 -16.86110029 117.06543678 -20.9296875 131.88671875 C-22.46840626 137.66067808 -23.78151845 143.4907466 -25.125 149.3125 C-25.37894531 150.41078125 -25.63289062 151.5090625 -25.89453125 152.640625 C-26.98227248 157.3887018 -28.03663556 162.12929529 -28.9296875 166.91796875 C-29.69945556 170.8635235 -30.74174245 174.67458982 -31.875 178.53125 C-33.43217452 183.85447992 -34.7850348 189.18266607 -36 194.59375 C-36.16483887 195.32279541 -36.32967773 196.05184082 -36.49951172 196.80297852 C-37.17434833 199.79694877 -37.84532755 202.7915881 -38.5 205.79003906 C-38.98874086 208.01896466 -39.49315392 210.24388177 -40 212.46875 C-40.14179688 213.13757202 -40.28359375 213.80639404 -40.4296875 214.4954834 C-41.74037162 220.15966517 -44.28331276 224.13616814 -48.1875 228.375 C-52.11240073 230.64272042 -55.58759413 231.07799294 -60 230 C-65.9812632 226.89978988 -71.19455302 222.62277687 -76.4375 218.4375 C-84.38356533 212.17776174 -92.52368035 206.28360702 -100.83398438 200.52050781 C-103.14220846 198.90017197 -105.424026 197.24695986 -107.703125 195.5859375 C-108.47454834 195.02793457 -109.24597168 194.46993164 -110.04077148 193.89501953 C-111.52203497 192.82239692 -112.99838389 191.74294444 -114.46899414 190.65576172 C-115.13535889 190.1763916 -115.80172363 189.69702148 -116.48828125 189.203125 C-117.07134033 188.77676758 -117.65439941 188.35041016 -118.25512695 187.91113281 C-120.26287751 186.69141922 -120.26287751 186.69141922 -124 187 C-126.3689925 188.74355488 -128.50722317 190.48217237 -130.6875 192.4375 C-131.30963379 192.98301514 -131.93176758 193.52853027 -132.57275391 194.09057617 C-136.87638081 197.8984886 -140.9807439 201.86931478 -144.9921875 205.984375 C-147.53694513 208.53903441 -150.21535159 210.89507994 -152.9609375 213.23046875 C-154.43532011 214.50996171 -155.87411352 215.83085534 -157.2890625 217.17578125 C-160.4708902 220.17138158 -163.18511935 222.63250481 -167.1875 224.4375 C-170.98256027 223.84715729 -172.30276009 222.36363811 -174.546875 219.32421875 C-176.01876683 216.96998317 -176.9172037 214.8211949 -177.81640625 212.19921875 C-179.41280558 207.65393608 -181.06300553 203.1338614 -182.76953125 198.62890625 C-183.26749353 197.30954914 -183.76529323 195.99013065 -184.26293945 194.6706543 C-184.51612946 193.99964691 -184.76931946 193.32863953 -185.03018188 192.63729858 C-192.11663825 173.84319251 -192.11663825 173.84319251 -194.97631836 165.58374023 C-195.53022652 163.99640926 -196.10120178 162.41492342 -196.68969727 160.84008789 C-198.1511941 156.86918876 -199.17563712 153.1870039 -199.74609375 148.98828125 C-200.71744838 143.45779202 -201.89824486 139.02041989 -206 135 C-216.10258252 129.33226233 -227.66233764 126.60985681 -238.77636719 123.61138916 C-243.36446406 122.3498892 -247.90569881 120.93608998 -252.4519043 119.53198242 C-254.62984739 118.86317273 -256.81344633 118.21240696 -259.00317383 117.58325195 C-265.40983522 115.70822195 -270.21217387 113.78782613 -275 109 C-275.5625 106.25 -275.5625 106.25 -275 103 C-265.62753882 90.19536994 -239.5953004 84.75423653 -225.32910156 79.27856445 C-222.12142616 78.04663456 -218.91587072 76.80935631 -215.7109375 75.5703125 C-205.32538162 71.5597917 -194.93641589 67.56897801 -184.47631836 63.7565918 C-179.01471232 61.75976984 -173.57922041 59.69931503 -168.14796448 57.62139893 C-166.24453968 56.89326675 -164.34106285 56.16527119 -162.4375 55.4375 C-161.81084442 55.19789551 -161.18418884 54.95829102 -160.5385437 54.71142578 C-152.27200365 51.55640293 -143.98088811 48.57733233 -135.56274414 45.85522461 C-131.40244663 44.50099871 -127.44029642 42.98045371 -123.49121094 41.10571289 C-120.38549171 39.72725323 -117.22180432 38.52943451 -114.0390625 37.34375 C-113.34619141 37.08484985 -112.65332031 36.82594971 -111.93945312 36.5592041 C-101.75711918 32.7730479 -91.50972228 29.16591108 -81.27246094 25.53173828 C-78.5770752 24.57435819 -75.88211479 23.61579778 -73.1875 22.65625 C-72.3160585 22.34593842 -71.444617 22.03562683 -70.54676819 21.71591187 C-65.134572 19.78180238 -59.74585263 17.79345318 -54.37109375 15.7578125 C-47.46866321 13.14433575 -40.5029591 10.79594691 -33.47460938 8.546875 C-27.804411 6.69855443 -22.40939638 4.50650459 -17 2 C-11.64734765 -0.32724015 -5.7632784 -1.02729132 0 0 Z " fill="#FDFEFE" transform="translate(386,153)"/>
<path d="M0 0 C-3.54493145 10.65385313 -15.45774392 19.54650402 -23.1875 27.3125 C-24.03038574 28.16013916 -24.87327148 29.00777832 -25.74169922 29.88110352 C-30.12694824 34.2547377 -34.58581773 38.463692 -39.2824707 42.50073242 C-41.46089667 44.40232644 -43.4870406 46.42510339 -45.5 48.5 C-48.80918993 51.91101116 -52.29961747 55.02788768 -55.88574219 58.13964844 C-59.29205075 61.13688531 -62.57938703 64.25717881 -65.875 67.375 C-71.05605694 72.2548049 -76.26811867 77.0883207 -81.578125 81.828125 C-84.40552748 84.36366658 -87.20401982 86.92995761 -90 89.5 C-93.7366549 92.93162185 -97.48243466 96.35225703 -101.25 99.75 C-102.04792969 100.47058594 -102.84585938 101.19117188 -103.66796875 101.93359375 C-105.21314632 103.30277119 -106.77835137 104.64969825 -108.36328125 105.97265625 C-109.08902344 106.57980469 -109.81476563 107.18695313 -110.5625 107.8125 C-111.20316406 108.33457031 -111.84382813 108.85664063 -112.50390625 109.39453125 C-114.21817322 111.23412322 -114.61122438 112.54485534 -115 115 C-108.62338718 119.71969768 -102.16760636 124.26668575 -95.546875 128.63671875 C-90.91384537 131.70754355 -86.3350385 134.85819499 -81.75 138 C-80.89083984 138.58869873 -80.03167969 139.17739746 -79.14648438 139.78393555 C-77.09726875 141.18872678 -75.04841808 142.59404617 -73 144 C-74.72811468 147.76424413 -76.63190003 149.52520303 -79.9375 152.0625 C-85.16490433 156.21568642 -89.76277675 160.6620553 -94.44140625 165.43359375 C-97.1988665 168.19947372 -100.05151655 170.77899863 -103.03125 173.30078125 C-104.48123105 174.55225299 -105.89284825 175.84851161 -107.28125 177.16796875 C-110.46563857 180.16660132 -113.18158162 182.63090936 -117.1875 184.4375 C-120.98256027 183.84715729 -122.30276009 182.36363811 -124.546875 179.32421875 C-126.01876683 176.96998317 -126.9172037 174.8211949 -127.81640625 172.19921875 C-129.41280558 167.65393608 -131.06300553 163.1338614 -132.76953125 158.62890625 C-133.26749353 157.30954914 -133.76529323 155.99013065 -134.26293945 154.6706543 C-134.51612946 153.99964691 -134.76931946 153.32863953 -135.03018188 152.63729858 C-139.00849479 142.0863503 -142.93690341 131.52743191 -146.61279297 120.86645508 C-149.60552344 112.19423269 -152.80022555 103.59757025 -156 95 C-153.75447686 93.50298457 -151.50073536 92.0409086 -149.21875 90.6015625 C-148.09460693 89.89205444 -148.09460693 89.89205444 -146.94775391 89.16821289 C-145.73611572 88.40432251 -145.73611572 88.40432251 -144.5 87.625 C-142.76820116 86.53259648 -141.03643111 85.44014733 -139.3046875 84.34765625 C-138.42006836 83.78965332 -137.53544922 83.23165039 -136.62402344 82.65673828 C-134.1671328 81.10552318 -131.71206308 79.55148148 -129.2578125 77.99609375 C-120.14725683 72.22517896 -111.00250316 66.51368566 -101.82543945 60.84912109 C-96.13149325 57.33074882 -90.46371325 53.77403328 -84.8125 50.1875 C-76.14342792 44.68824169 -67.40019611 39.3129965 -58.6496582 33.94458008 C-51.90323229 29.80086659 -45.18553403 25.61621557 -38.5 21.375 C-28.00279075 14.71945209 -28.00279075 14.71945209 -22.67578125 11.578125 C-20.35135317 10.20722143 -18.04006949 8.81751876 -15.73046875 7.421875 C-14.17464996 6.48929834 -12.61865915 5.5570086 -11.0625 4.625 C-10.31532715 4.17108887 -9.5681543 3.71717773 -8.79833984 3.24951172 C-7.73993896 2.61940186 -7.73993896 2.61940186 -6.66015625 1.9765625 C-5.71088257 1.40542725 -5.71088257 1.40542725 -4.74243164 0.82275391 C-3 0 -3 0 0 0 Z " fill="#C8DAEA" transform="translate(336,193)"/>
<path d="M0 0 C3.58835264 1.30442429 6.45633391 2.86560441 9.5390625 5.109375 C15.39251699 9.2981652 21.37513629 13.27481218 27.375 17.25 C29.48770152 18.64995216 31.59970983 20.05095115 33.7109375 21.453125 C34.63181152 22.06317383 35.55268555 22.67322266 36.50146484 23.30175781 C38.71937414 24.80925997 40.87121282 26.36994301 43 28 C41.48870789 31.81665295 39.28483282 33.58911684 36.0625 36.0625 C30.83509567 40.21568642 26.23722325 44.6620553 21.55859375 49.43359375 C18.8011335 52.19947372 15.94848345 54.77899863 12.96875 57.30078125 C11.51876895 58.55225299 10.10715175 59.84851161 8.71875 61.16796875 C2.80533292 66.7364365 2.80533292 66.7364365 -1.4375 68.125 C-4 68 -4 68 -6 66 C-7.26198586 53.42070912 -5.24995775 40.41007055 -3.91870117 27.9128418 C-3.55773807 24.51771046 -3.21062916 21.12135653 -2.86523438 17.72460938 C-2.64142215 15.56762547 -2.41684222 13.41072105 -2.19140625 11.25390625 C-2.08719864 10.23744522 -1.98299103 9.22098419 -1.87562561 8.17372131 C-1.72558327 6.77977394 -1.72558327 6.77977394 -1.57250977 5.35766602 C-1.48590591 4.53766617 -1.39930206 3.71766632 -1.31007385 2.87281799 C-1 1 -1 1 0 0 Z " fill="#A9C6D9" transform="translate(220,309)"/>
<path d="M0 0 C0.66 0.33 1.32 0.66 2 1 C0.58474822 2.58459815 -0.8322642 4.16762391 -2.25 5.75 C-3.03890625 6.63171875 -3.8278125 7.5134375 -4.640625 8.421875 C-5.41921875 9.27265625 -6.1978125 10.1234375 -7 11 C-7.69609375 11.76828125 -8.3921875 12.5365625 -9.109375 13.328125 C-11 15 -11 15 -14 15 C-14 15.66 -14 16.32 -14 17 C-14.66 16.67 -15.32 16.34 -16 16 C-15.67 15.34 -15.34 14.68 -15 14 C-14.34 14 -13.68 14 -13 14 C-12.67 13.01 -12.34 12.02 -12 11 C-11.34 11 -10.68 11 -10 11 C-10 10.34 -10 9.68 -10 9 C-8.3203125 7.34375 -8.3203125 7.34375 -6.125 5.5 C-4.00964496 3.71066742 -1.95980876 1.95980876 0 0 Z " fill="#88CFEC" transform="translate(91,70)"/>
<path d="M0 0 C1.22874588 3.99557226 0.36481908 6.06610971 -1 10 C-0.979375 10.9075 -0.95875 11.815 -0.9375 12.75 C-0.958125 13.4925 -0.97875 14.235 -1 15 C-1.99 15.66 -2.98 16.32 -4 17 C-3.45018084 10.95198929 -2.09570426 5.69398894 0 0 Z " fill="#A5D8EF" transform="translate(17,181)"/>
<path d="M0 0 C0.33 0.66 0.66 1.32 1 2 C-0.98 4.31 -2.96 6.62 -5 9 C-5.66 8.67 -6.32 8.34 -7 8 C-4.69 5.36 -2.38 2.72 0 0 Z " fill="#95D3ED" transform="translate(74,87)"/>
<path d="M0 0 C0 0.66 0 1.32 0 2 C-1.75 3.6875 -1.75 3.6875 -4 5 C-6.25 4.6875 -6.25 4.6875 -8 4 C-2.25 0 -2.25 0 0 0 Z " fill="#8CD0EC" transform="translate(130,43)"/>
</svg>
